# xmcd
#
# Track frame offsets: 
#        150
#        12917
#        32014
#        97484
#        128722
#        143120
#        158557
#        172337
#        210650
#        232870
#        249918
#
# Disc length: 3419 seconds
#
# Revision: 1
# Processed by: cddbd v1.5.2PL0 Copyright (c) Steve Scherf et al.
# Submitted via: ExactAudioCopyFreeDBPlugin 1.0
#
DISCID=8f0d590b
DTITLE=Pago Libre - Stepping Out
DYEAR=2005
DGENRE=Jazz
TTITLE0=W 9th Street
TTITLE1=Heptao
TTITLE2=Intrada
TTITLE3=Komm Ins Off'ne
TTITLE4=Let It Find U
TTITLE5=Alpine Sketch
TTITLE6=Waltz For Alfred Hitchcock
TTITLE7=Intermezzo
TTITLE8=Rasende Gnome
TTITLE9=Please Don't Leave Me Now
TTITLE10=The Trouble With Alfred
EXTD=YEAR: 2005
EXTT0=
EXTT1=
EXTT2=
EXTT3=
EXTT4=
EXTT5=
EXTT6=
EXTT7=
EXTT8=
EXTT9=
EXTT10=
PLAYORDER=
